<?xml version="1.0" encoding="UTF-8" standalone="no"?>
<svg
   xmlns:dc="http://purl.org/dc/elements/1.1/"
   xmlns:cc="http://creativecommons.org/ns#"
   xmlns:rdf="http://www.w3.org/1999/02/22-rdf-syntax-ns#"
   xmlns:svg="http://www.w3.org/2000/svg"
   xmlns="http://www.w3.org/2000/svg"
   xmlns:sodipodi="http://sodipodi.sourceforge.net/DTD/sodipodi-0.dtd"
   xmlns:inkscape="http://www.inkscape.org/namespaces/inkscape"
   version="1.1"
   id="svg10"
   xml:space="preserve"
   width="321.20532"
   height="383.91449"
   viewBox="0 0 321.20532 383.91447"
   sodipodi:docname="logo_schwarz.svg"
   inkscape:version="1.0.2 (e86c870879, 2021-01-15, custom)"><metadata
     id="metadata16"><rdf:RDF><cc:Work
         rdf:about=""><dc:format>image/svg+xml</dc:format><dc:type
           rdf:resource="http://purl.org/dc/dcmitype/StillImage" /><dc:title /></cc:Work></rdf:RDF></metadata><defs
     id="defs14"><rect
       x="229.0563"
       y="491.91754"
       width="86.911438"
       height="164.88805"
       id="rect1116" /><rect
       x="35.739285"
       y="815.19556"
       width="306.22067"
       height="111.27913"
       id="rect1103" /><rect
       x="77.976616"
       y="389.57321"
       width="344.39673"
       height="248.55048"
       id="rect1097" /><rect
       x="69.85405"
       y="266.11023"
       width="519.03186"
       height="205.50089"
       id="rect1091" /><clipPath
       clipPathUnits="userSpaceOnUse"
       id="clipPath122"><path
         d="m 256.565,463.76 c -22.608,22.607 -22.609,59.26 -10e-4,81.866 22.606,22.608 59.26,22.608 81.867,0 22.608,-22.606 22.609,-59.259 0.002,-81.866 -22.607,-22.607 -59.26,-22.607 -81.868,0"
         id="path120" /></clipPath><clipPath
       clipPathUnits="userSpaceOnUse"
       id="clipPath138"><path
         d="M 213.332,420.573 381.965,589.207 V 420.573 Z M 418.101,625.342 V 384.438 H 177.197 l 20.075,20.075 h 200.753 v 200.754 l 20.076,20.075"
         clip-rule="evenodd"
         id="path136" /></clipPath><clipPath
       clipPathUnits="userSpaceOnUse"
       id="clipPath144"><path
         d="M 0,841.945 H 594.96 V 0.055 H 0 Z"
         id="path142" /></clipPath><clipPath
       clipPathUnits="userSpaceOnUse"
       id="clipPath156"><path
         d="m 256.565,463.76 c -22.608,22.607 -22.609,59.26 -10e-4,81.866 22.606,22.608 59.26,22.608 81.867,0 22.608,-22.606 22.609,-59.259 0.002,-81.866 -22.607,-22.607 -59.26,-22.607 -81.868,0"
         id="path154" /></clipPath><clipPath
       clipPathUnits="userSpaceOnUse"
       id="clipPath162"><path
         d="M 213.332,420.573 381.965,589.207 V 420.573 Z M 418.101,625.342 V 384.438 H 177.197 l 20.075,20.075 h 200.753 v 200.754 l 20.076,20.075"
         clip-rule="evenodd"
         id="path160" /></clipPath><clipPath
       clipPathUnits="userSpaceOnUse"
       id="clipPath168"><path
         d="M 0,841.945 H 594.96 V 0.055 H 0 Z"
         id="path166" /></clipPath><clipPath
       clipPathUnits="userSpaceOnUse"
       id="clipPath180"><path
         d="m 256.565,463.76 c -22.608,22.607 -22.609,59.26 -10e-4,81.866 22.606,22.608 59.26,22.608 81.867,0 22.608,-22.606 22.609,-59.259 0.002,-81.866 -22.607,-22.607 -59.26,-22.607 -81.868,0"
         id="path178" /></clipPath><clipPath
       clipPathUnits="userSpaceOnUse"
       id="clipPath186"><path
         d="m 256.565,463.76 c -22.608,22.607 -22.609,59.26 -10e-4,81.866 22.606,22.608 59.26,22.608 81.867,0 22.608,-22.606 22.609,-59.259 0.002,-81.866 -22.607,-22.607 -59.26,-22.607 -81.868,0"
         id="path184" /></clipPath><clipPath
       clipPathUnits="userSpaceOnUse"
       id="clipPath192"><path
         d="M 213.332,420.573 381.965,589.207 V 420.573 Z M 418.101,625.342 V 384.438 H 177.197 l 20.075,20.075 h 200.753 v 200.754 l 20.076,20.075"
         clip-rule="evenodd"
         id="path190" /></clipPath><clipPath
       clipPathUnits="userSpaceOnUse"
       id="clipPath198"><path
         d="M 0,841.945 H 594.96 V 0.055 H 0 Z"
         id="path196" /></clipPath></defs><sodipodi:namedview
     pagecolor="#ffffff"
     bordercolor="#666666"
     borderopacity="1"
     objecttolerance="10"
     gridtolerance="10"
     guidetolerance="10"
     inkscape:pageopacity="0"
     inkscape:pageshadow="2"
     inkscape:window-width="1423"
     inkscape:window-height="978"
     id="namedview12"
     showgrid="false"
     inkscape:zoom="0.92335375"
     inkscape:cx="249.70458"
     inkscape:cy="202.47379"
     inkscape:window-x="71"
     inkscape:window-y="-6"
     inkscape:window-maximized="1"
     inkscape:current-layer="g18"
     inkscape:document-rotation="0" /><g
     id="g18"
     inkscape:groupmode="layer"
     inkscape:label="lolgo-31-10 (1)"
     transform="matrix(1.3333333,0,0,-1.3333333,0,1122.6667)"><path
       d="m 79.369,680.41805 c -22.608,22.607 -22.609,59.259 -0.001,81.866 22.606,22.608 59.26,22.608 81.867,0 22.609,-22.607 22.609,-59.259 0.002,-81.866 -22.607,-22.607 -59.26,-22.607 -81.868,0"
       style="fill:#231f20;fill-opacity:1;fill-rule:nonzero;stroke:none"
       id="path114" /><g
       id="g118"
       clip-path="url(#clipPath122)"
       transform="translate(-177.196,216.65805)"><g
         id="g124"
         transform="translate(248.525,545.744)"><path
           d="m 0,0 c 0,0 27.611,5.476 41.753,-8.666 14.142,-14.142 -0.485,-49.145 14.742,-64.373 13.845,-13.845 41.753,-8.665 41.753,-8.665"
           style="fill:none;stroke:#ffffff;stroke-width:8.029;stroke-linecap:butt;stroke-linejoin:miter;stroke-miterlimit:3.864;stroke-dasharray:none;stroke-opacity:1"
           id="path126" /></g></g><path
       d="m 36.136,637.23105 168.633,168.634 v -168.634 z m 204.768,204.769 v -240.904 H 0 l 20.076,20.075 h 200.753 v 200.754 l 20.075,20.075"
       style="fill:#231f20;fill-opacity:1;fill-rule:evenodd;stroke:none"
       id="path130" /><g
       id="g134"
       clip-path="url(#clipPath138)"
       transform="translate(-177.196,216.65805)"><g
         id="g140"
         clip-path="url(#clipPath144)"><g
           id="g146"
           transform="translate(256.565,463.76)"><path
             d="m 0,0 c -22.608,22.607 -22.609,59.259 -0.001,81.866 22.606,22.608 59.26,22.608 81.867,0 C 104.475,59.259 104.475,22.607 81.868,0 59.261,-22.607 22.608,-22.607 0,0"
             style="fill:#ffffff;fill-opacity:1;fill-rule:nonzero;stroke:none"
             id="path148" /></g></g></g><g
       id="g152"
       clip-path="url(#clipPath156)"
       transform="translate(-177.196,216.65805)"><g
         id="g158"
         clip-path="url(#clipPath162)"><g
           id="g164"
           clip-path="url(#clipPath168)"><g
             id="g170"
             transform="translate(256.565,463.76)"><path
               d="m 0,0 c -22.608,22.607 -22.609,59.259 -0.001,81.866 22.606,22.608 59.26,22.608 81.867,0 C 104.475,59.259 104.475,22.607 81.868,0 59.261,-22.607 22.608,-22.607 0,0"
               style="fill:#ffffff;fill-opacity:1;fill-rule:nonzero;stroke:none"
               id="path172" /></g></g></g></g><g
       id="g176"
       clip-path="url(#clipPath180)"
       transform="translate(-177.196,216.65805)"><g
         id="g182"
         clip-path="url(#clipPath186)"><g
           id="g188"
           clip-path="url(#clipPath192)"><g
             id="g194"
             clip-path="url(#clipPath198)"><g
               id="g200"
               transform="translate(248.525,545.744)"><path
                 d="m 0,0 c 0,0 27.611,5.476 41.753,-8.666 14.142,-14.142 -0.485,-49.145 14.742,-64.373 13.845,-13.845 41.753,-8.665 41.753,-8.665"
                 style="fill:none;stroke:#231f20;stroke-width:8.029;stroke-linecap:butt;stroke-linejoin:miter;stroke-miterlimit:3.864;stroke-dasharray:none;stroke-opacity:1"
                 id="path202" /></g></g></g></g></g><path
       d="m 27.092887,557.61418 q -1.65,-1.55 -4.35,-2.55 -2.65,-1 -6.5,-1 -3.25,0 -6.15,1.05 -2.8500002,1.1 -5.2500002,3.75 -2.1,2.3 -3.05,5.55 -0.94999999,3.25 -0.94999999,7 0,3.3 0.54999999,5.85 0.55,2.55 1.85,4.95 2.25,4.1 5.85,6 3.6500002,1.9 8.2500002,1.9 1.35,0 2.65,-0.2 1.35,-0.15 2.5,-0.5 1.2,-0.35 2.15,-0.8 1,-0.45 1.6,-1.05 l -3.8,-6.6 q -2.4,1.85 -5.2,1.85 -1.15,0 -2.2,-0.35 -1,-0.3 -1.7,-1 -0.65,-0.65 -1.1,-1.35 -0.4,-0.7 -0.7,-1.6 -0.25,-0.9 -0.35,-2.05 -0.1,-1.1 -0.1,-2.65 0,-4.3 0.3,-6.65 0.3,-2.3 1.4,-3.55 0.85,-1 1.95,-1.6 1.1,-0.6 2.5,-0.6 1.7,0 3.1,0.5 1.45,0.5 2.9,1.8 z"
       style="font-size:50px;line-height:1.25;font-family:Meta;-inkscape-font-specification:Meta;fill:#231f20;fill-opacity:1;stroke-width:0.75"
       id="path2884" /><path
       d="m 50.29283,554.66418 h -19.2 v 34.85 h 9.05 v -27.45 h 11.85 z"
       style="font-size:50px;line-height:1.25;font-family:Meta;-inkscape-font-specification:Meta;fill:#231f20;fill-opacity:1;stroke-width:0.75"
       id="path2886" /><path
       d="m 81.442778,565.41418 q 0,-2.25 -0.15,-3.5 -0.15,-1.2 -0.7,-2.25 -0.55,-1.1 -1.6,-2.1 -1,-1 -2.5,-1.8 -1.5,-0.75 -3.55,-1.2 -2,-0.5 -4.6,-0.5 -8.35,0 -11.4,4.35 -0.5,0.7 -0.85,1.25 -0.3,0.6 -0.5,1.4 -0.2,0.8 -0.3,1.9 -0.05,1.1 -0.05,2.85 v 23.7 h 9 v -22.75 q 0,-2.4 0.9,-3.9 0.9,-1.45 3.25,-1.45 2.4,0 3.25,1.3 0.85,1.35 0.85,3.9 v 22.9 h 8.95 z"
       style="font-size:50px;line-height:1.25;font-family:Meta;-inkscape-font-specification:Meta;fill:#231f20;fill-opacity:1;stroke-width:0.75"
       id="path2888" /><path
       d="m 103.59274,579.41418 q 0,1.35 -0.7,2.05 -0.7,0.7 -2.3,0.7 h -3.45 v -6.05 h 3.55 q 1.6,0 2.25,0.95 0.65,1 0.65,2.35 z m 0.15,-13.7 q 0,0.65 -0.15,1.25 -0.1,0.6 -0.5,1.05 -0.35,0.45 -1,0.7 -0.6,0.3 -1.65,0.3 h -3.3 v -6.9 h 3.4 q 1.7,0 2.45,1 0.75,1 0.75,2.6 z m 10.3,-0.3 q 0,-2.4 -0.7,-4.4 -0.7,-1.95 -2.15,-3.4 -1.45,-1.4 -3.65,-2.2 -2.2,-0.75 -5.2,-0.75 h -14.15 v 34.85 h 15.45 q 1.9,0 3.55,-0.45 1.7,-0.4 2.9,-1.45 1.25,-1 1.95,-2.65 0.75,-1.6 0.75,-4 0,-1.2 -0.3,-2.4 -0.25,-1.15 -0.85,-2.2 -0.6,-1 -1.6,-1.85 -0.95,-0.8 -2.4,-1.25 1.25,-0.35 2.4,-1.05 1.2,-0.65 2.05,-1.65 0.9,-1 1.4,-2.3 0.55,-1.3 0.55,-2.85 z"
       style="font-size:50px;line-height:1.25;font-family:Meta;-inkscape-font-specification:Meta;fill:#231f20;fill-opacity:1;stroke-width:0.75"
       id="path2890" /><path
       d="m 135.64269,554.66418 v 14.65 h -7.15 v -14.65 h -8.95 v 34.85 h 8.95 v -12.8 h 7.15 v 12.8 h 8.95 v -34.85 z"
       style="font-size:50px;line-height:1.25;font-family:Meta;-inkscape-font-specification:Meta;fill:#231f20;fill-opacity:1;stroke-width:0.75"
       id="path2892" /><path
       d="m 163.74263,574.61418 q -0.25,1.15 -0.45,2.45 -0.15,1.35 -0.2,2.35 -0.1,-1 -0.35,-2.35 -0.2,-1.35 -0.6,-3.1 l -1.4,-5.7 h 4.5 z m 5.1,-19.95 -1.8,6.7 h -8.25 l -1.9,-6.7 h -9.4 l 11.2,34.85 h 9.3 l 10.55,-34.85 z"
       style="font-size:50px;line-height:1.25;font-family:Meta;-inkscape-font-specification:Meta;fill:#231f20;fill-opacity:1;stroke-width:0.75"
       id="path2894" /><path
       d="m 207.39254,565.41418 q 0,-2.25 -0.15,-3.5 -0.15,-1.2 -0.7,-2.25 -0.55,-1.1 -1.6,-2.1 -1,-1 -2.5,-1.8 -1.5,-0.75 -3.55,-1.2 -2,-0.5 -4.6,-0.5 -8.35,0 -11.4,4.35 -0.5,0.7 -0.85,1.25 -0.3,0.6 -0.5,1.4 -0.2,0.8 -0.3,1.9 -0.05,1.1 -0.05,2.85 v 23.7 h 9 v -22.75 q 0,-2.4 0.9,-3.9 0.9,-1.45 3.25,-1.45 2.4,0 3.25,1.3 0.85,1.35 0.85,3.9 v 22.9 h 8.95 z"
       style="font-size:50px;line-height:1.25;font-family:Meta;-inkscape-font-specification:Meta;fill:#231f20;fill-opacity:1;stroke-width:0.75"
       id="path2896" /><path
       d="m 240.49251,566.81418 q 0,-3.15 -1.1,-5.55 -1.1,-2.35 -3.15,-3.95 -2,-1.6 -4.8,-2.45 -2.8,-0.8 -6.2,-0.8 -3.95,0 -7.1,0.85 -3.1,0.9 -5.75,2.3 l 3.15,7 q 1.9,-1.1 4.5,-1.95 2.6,-0.85 5.3,-0.85 2.65,0 3.75,0.85 1.15,0.9 1.15,2.35 0,1.15 -0.85,1.75 -0.85,0.65 -2.65,1.1 l -4.1,1.05 q -1.9,0.5 -3.45,1.3 -1.55,0.8 -2.7,2 -1.1,1.2 -1.75,2.85 -0.6,1.7 -0.6,3.95 0,2.6 1,4.7 1,2.15 2.8,3.65 1.8,1.5 4.25,2.3 2.5,0.85 5.45,0.85 3.65,0 6.85,-0.9 3.25,-0.9 5.6,-2.5 l -4.3,-6.35 q -1.75,1.15 -3.9,1.8 -2.15,0.65 -3.95,0.65 -1.75,0 -2.65,-0.75 -0.9,-0.7 -0.9,-1.75 0,-0.85 0.7,-1.65 0.75,-0.8 2.7,-1.3 l 3.55,-0.9 q 1.4,-0.35 3,-0.95 1.6,-0.55 2.95,-1.6 1.4,-1.05 2.3,-2.8 0.9,-1.7 0.9,-4.3 z"
       style="font-size:50px;line-height:1.25;font-family:Meta;-inkscape-font-specification:Meta;fill:#231f20;fill-opacity:1;stroke-width:0.75"
       id="path2898" /></g></svg>
